<svg width="30" height="28" viewBox="0 0 30 28" fill="none" xmlns="http://www.w3.org/2000/svg">
<path d="M5.66659 15.3333C5.66659 17.5312 6.5529 19.522 7.98758 20.9679C8.12595 21.1074 8.19513 21.1771 8.23597 21.2442C8.27493 21.3081 8.29762 21.3632 8.31502 21.4361C8.33326 21.5124 8.33326 21.5993 8.33326 21.7731V24.9333C8.33326 25.3067 8.33326 25.4934 8.40592 25.636C8.46984 25.7614 8.57183 25.8634 8.69727 25.9273C8.83987 26 9.02656 26 9.39993 26H11.9333C12.3066 26 12.4933 26 12.6359 25.9273C12.7614 25.8634 12.8633 25.7614 12.9273 25.636C12.9999 25.4934 12.9999 25.3067 12.9999 24.9333V24.4C12.9999 24.0266 12.9999 23.8399 13.0726 23.6973C13.1365 23.5719 13.2385 23.4699 13.3639 23.406C13.5065 23.3333 13.6932 23.3333 14.0666 23.3333H15.9333C16.3066 23.3333 16.4933 23.3333 16.6359 23.406C16.7614 23.4699 16.8633 23.5719 16.9273 23.6973C16.9999 23.8399 16.9999 24.0266 16.9999 24.4V24.9333C16.9999 25.3067 16.9999 25.4934 17.0726 25.636C17.1365 25.7614 17.2385 25.8634 17.3639 25.9273C17.5065 26 17.6932 26 18.0666 26H20.6C20.9734 26 21.1601 26 21.3027 25.9273C21.4281 25.8634 21.5301 25.7614 21.594 25.636C21.6667 25.4934 21.6667 25.3067 21.6667 24.9333V23.6324C21.6667 23.363 21.6667 23.2283 21.705 23.1202C21.7418 23.0165 21.7881 22.944 21.8666 22.867C21.9486 22.7867 22.0874 22.7222 22.3649 22.5934C23.6746 21.9854 24.7921 21.0334 25.6015 19.8536C25.7439 19.6461 25.815 19.5423 25.891 19.4811C25.9637 19.4225 26.0289 19.3881 26.1183 19.3613C26.2119 19.3333 26.3229 19.3333 26.545 19.3333H27.2667C27.6401 19.3333 27.8267 19.3333 27.9694 19.2607C28.0948 19.1968 28.1968 19.0948 28.2607 18.9693C28.3334 18.8267 28.3334 18.64 28.3334 18.2667V13.7143C28.3334 13.3589 28.3334 13.1812 28.2673 13.044C28.2018 12.908 28.092 12.7982 27.956 12.7327C27.8189 12.6667 27.6411 12.6667 27.2857 12.6667C27.0284 12.6667 26.8998 12.6667 26.7961 12.6317C26.6844 12.5941 26.6061 12.544 26.525 12.4584C26.4498 12.379 26.3885 12.2462 26.2657 11.9806C25.8718 11.1283 25.3322 10.357 24.679 9.69872C24.5407 9.55927 24.4715 9.48955 24.4306 9.4225C24.3917 9.35852 24.369 9.30345 24.3516 9.23059C24.3334 9.15423 24.3334 9.06734 24.3334 8.89357V7.4141C24.3334 6.93404 24.3334 6.69401 24.2334 6.53267C24.1458 6.39134 24.0086 6.28784 23.8486 6.24246C23.666 6.19066 23.4352 6.2566 22.9737 6.38848L19.8102 7.29229C19.7565 7.30765 19.7296 7.31533 19.7023 7.32072C19.678 7.32551 19.6535 7.32895 19.6288 7.33101C19.6011 7.33333 19.5731 7.33333 19.5172 7.33333H18.9454M5.66659 15.3333C5.66659 12.2612 7.39821 9.59361 9.93865 8.25321M5.66659 15.3333H4.33335C2.86059 15.3333 1.66669 14.1394 1.66669 12.6667C1.66669 11.6796 2.20295 10.8178 3.00002 10.3568M19 6.66667C19 9.244 16.9107 11.3333 14.3334 11.3333C11.756 11.3333 9.66669 9.244 9.66669 6.66667C9.66669 4.08934 11.756 2 14.3334 2C16.9107 2 19 4.08934 19 6.66667Z" stroke="#437D8E" stroke-width="2.5" stroke-linecap="round" stroke-linejoin="round"/>
</svg>
